<svg xmlns="http://www.w3.org/2000/svg" version="1.1" xmlns:xlink="http://www.w3.org/1999/xlink" xmlns:svgjs="http://svgjs.dev/svgjs" width="1000" height="262" viewBox="0 0 1000 262"><g transform="matrix(1,0,0,1,-0.6060606060606233,-0.14398430910671323)"><svg viewBox="0 0 396 104" data-background-color="#ffffff" preserveAspectRatio="xMidYMid meet" height="262" width="1000" xmlns="http://www.w3.org/2000/svg" xmlns:xlink="http://www.w3.org/1999/xlink"><defs></defs><g id="tight-bounds" transform="matrix(1,0,0,1,0.2400000000000091,0.05715407689731933)"><svg viewBox="0 0 395.52 103.88569184620535" height="103.88569184620535" width="395.52"><g><svg viewBox="0 0 534.2229599880585 140.3168532526475" height="103.88569184620535" width="395.52"><g><svg viewBox="0 0 395.52 140.3168532526475" height="140.3168532526475" width="395.52"><g><svg viewBox="0 0 395.52 140.3168532526475" height="140.3168532526475" width="395.52"><g><svg viewBox="0 0 395.52 140.3168532526475" height="140.3168532526475" width="395.52"><g transform="matrix(1,0,0,1,0,0)"><svg width="395.52" viewBox="2.83 -37.55 129.1 45.8" height="140.3168532526475" data-palette-color="#3d4950"><path d="M32.08-17.5L32.08-8.91Q32.08-8.01 31.87-7.01 31.67-6.01 31.23-5.02 30.79-4.03 30.09-3.13 29.39-2.22 28.41-1.53 27.42-0.83 26.12-0.42 24.83 0 23.19 0L23.19 0 11.74 0Q10.84 0 9.84-0.21 8.84-0.42 7.85-0.85 6.86-1.29 5.96-1.99 5.05-2.69 4.36-3.67 3.66-4.66 3.25-5.97 2.83-7.28 2.83-8.91L2.83-8.91 2.83-37.55 9.18-37.55 9.18-8.91Q9.18-7.74 9.91-7.04 10.64-6.35 11.74-6.35L11.74-6.35 23.19-6.35Q24.39-6.35 25.06-7.06 25.73-7.76 25.73-8.91L25.73-8.91 25.73-17.5Q25.73-18.7 25.02-19.37 24.32-20.04 23.19-20.04L23.19-20.04 11.74-20.04 11.74-26.39 23.19-26.39Q24.1-26.39 25.1-26.18 26.1-25.98 27.09-25.54 28.08-25.1 28.98-24.4 29.88-23.71 30.57-22.72 31.25-21.73 31.67-20.43 32.08-19.14 32.08-17.5L32.08-17.5ZM65.89-17.65L65.89-17.65Q65.89-16.33 65.43-14.81 64.96-13.28 63.93-11.98 62.89-10.67 61.22-9.79 59.54-8.91 57.15-8.91L57.15-8.91 45.7-8.91 45.7-14.94 57.15-14.94Q58.44-14.94 59.15-15.73 59.86-16.53 59.86-17.7L59.86-17.7Q59.86-18.95 59.07-19.65 58.27-20.36 57.15-20.36L57.15-20.36 45.7-20.36Q44.41-20.36 43.7-19.57 42.99-18.77 42.99-17.6L42.99-17.6 42.99-8.74Q42.99-7.47 43.78-6.76 44.58-6.05 45.75-6.05L45.75-6.05 57.15-6.05 57.15 0 45.7 0Q44.38 0 42.86-0.46 41.33-0.93 40.02-1.97 38.72-3 37.84-4.68 36.96-6.35 36.96-8.74L36.96-8.74 36.96-17.65Q36.96-18.97 37.42-20.5 37.89-22.02 38.93-23.33 39.96-24.63 41.64-25.51 43.31-26.39 45.7-26.39L45.7-26.39 57.15-26.39Q58.47-26.39 60-25.93 61.52-25.46 62.83-24.43 64.13-23.39 65.01-21.72 65.89-20.04 65.89-17.65ZM98.55-17.65L98.55-17.65Q98.55-16.33 98.09-14.81 97.63-13.28 96.59-11.98 95.55-10.67 93.88-9.79 92.21-8.91 89.81-8.91L89.81-8.91 78.36-8.91 78.36-14.94 89.81-14.94Q91.11-14.94 91.82-15.73 92.52-16.53 92.52-17.7L92.52-17.7Q92.52-18.95 91.73-19.65 90.94-20.36 89.81-20.36L89.81-20.36 78.36-20.36Q77.07-20.36 76.36-19.57 75.65-18.77 75.65-17.6L75.65-17.6 75.65-8.74Q75.65-7.47 76.45-6.76 77.24-6.05 78.41-6.05L78.41-6.05 89.81-6.05 89.81 0 78.36 0Q77.05 0 75.52-0.46 73.99-0.93 72.69-1.97 71.38-3 70.5-4.68 69.62-6.35 69.62-8.74L69.62-8.74 69.62-17.65Q69.62-18.97 70.09-20.5 70.55-22.02 71.59-23.33 72.63-24.63 74.3-25.51 75.97-26.39 78.36-26.39L78.36-26.39 89.81-26.39Q91.13-26.39 92.66-25.93 94.18-25.46 95.49-24.43 96.8-23.39 97.68-21.72 98.55-20.04 98.55-17.65ZM131.93-17.5L131.93-8.91Q131.93-7.28 131.51-5.97 131.1-4.66 130.41-3.67 129.73-2.69 128.83-1.99 127.92-1.29 126.93-0.85 125.94-0.42 124.94-0.21 123.94 0 123.04 0L123.04 0 111.59 0 111.59-6.35 123.04-6.35Q124.31-6.35 124.94-7.01 125.58-7.67 125.58-8.91L125.58-8.91 125.58-17.46Q125.58-18.77 124.93-19.41 124.28-20.04 123.04-20.04L123.04-20.04 111.64-20.04Q110.34-20.04 109.68-19.4 109.03-18.75 109.03-17.5L109.03-17.5 109.03 8.25 102.68 8.25 102.68-17.5Q102.68-19.14 103.09-20.43 103.51-21.73 104.2-22.72 104.9-23.71 105.8-24.4 106.71-25.1 107.7-25.54 108.68-25.98 109.7-26.18 110.71-26.39 111.59-26.39L111.59-26.39 123.04-26.39Q124.68-26.39 125.97-25.98 127.26-25.56 128.25-24.88 129.24-24.19 129.94-23.29 130.63-22.39 131.07-21.4 131.51-20.41 131.72-19.41 131.93-18.41 131.93-17.5L131.93-17.5Z" opacity="1" transform="matrix(1,0,0,1,0,0)" fill="#3d4950" class="undefined-text-0" data-fill-palette-color="primary" id="text-0"></path></svg></g></svg></g></svg></g></svg></g><g transform="matrix(1,0,0,1,428.645441448472,21.678953827534023)"><svg viewBox="0 0 105.57751853958649 96.95894559757944" height="96.95894559757944" width="105.57751853958649"><g><svg xmlns:x="http://ns.adobe.com/Extensibility/1.0/" xmlns:i="http://ns.adobe.com/AdobeIllustrator/10.0/" xmlns:graph="http://ns.adobe.com/Graphs/1.0/" xmlns="http://www.w3.org/2000/svg" xmlns:xlink="http://www.w3.org/1999/xlink" version="1.1" x="0" y="0" viewBox="7.5 9.5 49 45" enable-background="new 0 0 64 64" xml:space="preserve" height="96.95894559757944" width="105.57751853958649" class="icon-icon-0" data-fill-palette-color="accent" id="icon-0"><g fill="#ff4993" data-fill-palette-color="accent"><g fill="#ff4993" data-fill-palette-color="accent"><path d="M8 29.5c-0.276 0-0.5 0.224-0.5 0.5v4c0 0.276 0.224 0.5 0.5 0.5s0.5-0.224 0.5-0.5v-4C8.5 29.724 8.276 29.5 8 29.5z" fill="#ff4993" data-fill-palette-color="accent"></path><path d="M12 25.5c-0.276 0-0.5 0.224-0.5 0.5v12c0 0.276 0.224 0.5 0.5 0.5s0.5-0.224 0.5-0.5V26C12.5 25.724 12.276 25.5 12 25.5z" fill="#ff4993" data-fill-palette-color="accent"></path><path d="M16 27.5c-0.276 0-0.5 0.224-0.5 0.5v8c0 0.276 0.224 0.5 0.5 0.5s0.5-0.224 0.5-0.5v-8C16.5 27.724 16.276 27.5 16 27.5z" fill="#ff4993" data-fill-palette-color="accent"></path><path d="M20 19.5c-0.276 0-0.5 0.224-0.5 0.5v24c0 0.276 0.224 0.5 0.5 0.5s0.5-0.224 0.5-0.5V20C20.5 19.724 20.276 19.5 20 19.5z" fill="#ff4993" data-fill-palette-color="accent"></path><path d="M24 27.5c-0.276 0-0.5 0.224-0.5 0.5v8c0 0.276 0.224 0.5 0.5 0.5s0.5-0.224 0.5-0.5v-8C24.5 27.724 24.276 27.5 24 27.5z" fill="#ff4993" data-fill-palette-color="accent"></path><path d="M28 9.5c-0.276 0-0.5 0.224-0.5 0.5v44c0 0.276 0.224 0.5 0.5 0.5s0.5-0.224 0.5-0.5V10C28.5 9.724 28.276 9.5 28 9.5z" fill="#ff4993" data-fill-palette-color="accent"></path><path d="M32 17.5c-0.276 0-0.5 0.224-0.5 0.5v28c0 0.276 0.224 0.5 0.5 0.5s0.5-0.224 0.5-0.5V18C32.5 17.724 32.276 17.5 32 17.5z" fill="#ff4993" data-fill-palette-color="accent"></path><path d="M36 21.5c-0.276 0-0.5 0.224-0.5 0.5v20c0 0.276 0.224 0.5 0.5 0.5s0.5-0.224 0.5-0.5V22C36.5 21.724 36.276 21.5 36 21.5z" fill="#ff4993" data-fill-palette-color="accent"></path><path d="M40 27.5c-0.276 0-0.5 0.224-0.5 0.5v8c0 0.276 0.224 0.5 0.5 0.5s0.5-0.224 0.5-0.5v-8C40.5 27.724 40.276 27.5 40 27.5z" fill="#ff4993" data-fill-palette-color="accent"></path><path d="M44 29.5c-0.276 0-0.5 0.224-0.5 0.5v4c0 0.276 0.224 0.5 0.5 0.5s0.5-0.224 0.5-0.5v-4C44.5 29.724 44.276 29.5 44 29.5z" fill="#ff4993" data-fill-palette-color="accent"></path><path d="M48 21.5c-0.276 0-0.5 0.224-0.5 0.5v18c0 0.276 0.224 0.5 0.5 0.5s0.5-0.224 0.5-0.5V22C48.5 21.724 48.276 21.5 48 21.5z" fill="#ff4993" data-fill-palette-color="accent"></path><path d="M52 27.5c-0.276 0-0.5 0.224-0.5 0.5v8c0 0.276 0.224 0.5 0.5 0.5s0.5-0.224 0.5-0.5v-8C52.5 27.724 52.276 27.5 52 27.5z" fill="#ff4993" data-fill-palette-color="accent"></path><path d="M56 29.5c-0.276 0-0.5 0.224-0.5 0.5v4c0 0.276 0.224 0.5 0.5 0.5s0.5-0.224 0.5-0.5v-4C56.5 29.724 56.276 29.5 56 29.5z" fill="#ff4993" data-fill-palette-color="accent"></path></g></g></svg><g></g></g></svg></g></svg></g></svg><rect width="395.52" height="103.88569184620535" fill="none" stroke="none" visibility="hidden"></rect></g></svg></g></svg>