<svg xmlns="http://www.w3.org/2000/svg" version="1.1" xmlns:xlink="http://www.w3.org/1999/xlink" xmlns:svgjs="http://svgjs.dev/svgjs" width="1000" height="131" viewBox="0 0 1000 131"><g transform="matrix(1,0,0,1,-0.6060606060606233,0.5534732787690757)"><svg viewBox="0 0 396 52" data-background-color="#ffffff" preserveAspectRatio="xMidYMid meet" height="131" width="1000" xmlns="http://www.w3.org/2000/svg" xmlns:xlink="http://www.w3.org/1999/xlink"><defs></defs><g id="tight-bounds" transform="matrix(1,0,0,1,0.2400000000000091,-0.2196993167632968)"><svg viewBox="0 0 395.52 52.43939863352659" height="52.43939863352659" width="395.52"><g><svg viewBox="0 0 474.82349691022114 62.953728345065144" height="52.43939863352659" width="395.52"><g transform="matrix(1,0,0,1,0,8.700551457241275)"><svg viewBox="0 0 395.52 45.552625430582594" height="45.552625430582594" width="395.52"><g><svg viewBox="0 0 395.52 45.552625430582594" height="45.552625430582594" width="395.52"><g><svg viewBox="0 0 395.52 45.552625430582594" height="45.552625430582594" width="395.52"><g transform="matrix(1,0,0,1,0,0)"><svg width="395.52" viewBox="2.34 -37.55 326.01000000000005 37.55" height="45.552625430582594" data-palette-color="#3d4950"><path d="M37.33-10.3L37.33-10.3Q37.33-8.42 36.85-6.92 36.38-5.42 35.6-4.27 34.81-3.13 33.76-2.32 32.71-1.51 31.59-1 30.47-0.49 29.31-0.24 28.15 0 27.12 0L27.12 0 2.64 0 2.64-6.35 27.12-6.35Q28.96-6.35 29.97-7.42 30.98-8.5 30.98-10.3L30.98-10.3Q30.98-11.18 30.71-11.91 30.44-12.65 29.94-13.18 29.44-13.72 28.72-14.01 28-14.31 27.12-14.31L27.12-14.31 12.52-14.31Q10.99-14.31 9.2-14.86 7.42-15.41 5.9-16.63 4.37-17.85 3.36-19.82 2.34-21.8 2.34-24.66L2.34-24.66Q2.34-27.51 3.36-29.48 4.37-31.45 5.9-32.68 7.42-33.91 9.2-34.46 10.99-35.01 12.52-35.01L12.52-35.01 34.13-35.01 34.13-28.66 12.52-28.66Q10.72-28.66 9.7-27.56 8.69-26.46 8.69-24.66L8.69-24.66Q8.69-22.83 9.7-21.77 10.72-20.7 12.52-20.7L12.52-20.7 27.12-20.7 27.17-20.7Q28.2-20.68 29.35-20.42 30.49-20.17 31.63-19.63 32.76-19.09 33.79-18.27 34.81-17.46 35.61-16.31 36.4-15.16 36.87-13.67 37.33-12.18 37.33-10.3ZM70.6-17.5L70.6-8.91Q70.6-7.28 70.19-5.97 69.77-4.66 69.09-3.67 68.41-2.69 67.5-1.99 66.6-1.29 65.61-0.85 64.62-0.42 63.61-0.21 62.6 0 61.69 0L61.69 0 50.24 0Q48.92 0 47.36-0.46 45.8-0.93 44.47-1.99 43.14-3.05 42.25-4.75 41.35-6.45 41.35-8.91L41.35-8.91 41.35-17.5Q41.35-19.95 42.25-21.64 43.14-23.34 44.47-24.4 45.8-25.46 47.36-25.93 48.92-26.39 50.24-26.39L50.24-26.39 61.69-26.39Q64.13-26.39 65.84-25.51 67.55-24.63 68.6-23.3 69.65-21.97 70.13-20.41 70.6-18.85 70.6-17.5L70.6-17.5ZM64.26-8.91L64.26-17.46Q64.26-18.77 63.6-19.41 62.94-20.04 61.69-20.04L61.69-20.04 50.29-20.04Q49.02-20.04 48.36-19.4 47.7-18.75 47.7-17.5L47.7-17.5 47.7-8.91Q47.7-7.67 48.36-7.01 49.02-6.35 50.29-6.35L50.29-6.35 61.69-6.35Q62.99-6.35 63.62-7.01 64.26-7.67 64.26-8.91L64.26-8.91ZM104.85-26.39L104.85-3.2Q104.85-2.51 104.61-1.93 104.37-1.34 103.94-0.92 103.51-0.49 102.94-0.24 102.36 0 101.7 0L101.7 0 87.35 0Q86.18 0 84.85-0.27 83.52-0.54 82.22-1.14 80.93-1.73 79.72-2.65 78.51-3.56 77.61-4.87 76.7-6.18 76.15-7.89 75.61-9.59 75.61-11.74L75.61-11.74 75.61-26.39 81.95-26.39 81.95-11.74Q81.95-10.5 82.38-9.51 82.81-8.52 83.54-7.81 84.27-7.1 85.26-6.73 86.25-6.35 87.4-6.35L87.4-6.35 98.51-6.35 98.51-26.39 104.85-26.39ZM140.06-14.65L140.06 0 133.71 0 133.71-14.65Q133.71-15.89 133.28-16.88 132.85-17.87 132.12-18.58 131.39-19.29 130.4-19.67 129.41-20.04 128.26-20.04L128.26-20.04 117.16-20.04 117.16 0 110.81 0 110.81-23.24Q110.81-23.9 111.05-24.48 111.3-25.05 111.74-25.48 112.18-25.9 112.76-26.15 113.35-26.39 114.01-26.39L114.01-26.39 128.31-26.39Q129.51-26.39 130.84-26.12 132.17-25.85 133.48-25.26 134.78-24.66 135.97-23.74 137.15-22.83 138.07-21.52 138.98-20.21 139.52-18.51 140.06-16.8 140.06-14.65L140.06-14.65ZM174.57-37.55L174.57-8.91Q174.57-7.28 174.16-5.97 173.74-4.66 173.06-3.67 172.38-2.69 171.47-1.99 170.57-1.29 169.58-0.85 168.59-0.42 167.58-0.21 166.57 0 165.66 0L165.66 0 154.21 0Q152.58 0 151.28-0.42 149.99-0.83 149-1.53 148.01-2.22 147.32-3.13 146.62-4.03 146.18-5.02 145.74-6.01 145.53-7.02 145.33-8.03 145.33-8.91L145.33-8.91 145.33-17.5Q145.33-19.95 146.22-21.64 147.11-23.34 148.44-24.4 149.77-25.46 151.33-25.93 152.9-26.39 154.21-26.39L154.21-26.39 165.66-26.39 165.66-20.04 154.26-20.04Q152.99-20.04 152.33-19.4 151.67-18.75 151.67-17.5L151.67-17.5 151.67-8.96Q151.67-7.67 152.32-7.01 152.97-6.35 154.21-6.35L154.21-6.35 165.66-6.35Q166.96-6.35 167.59-7.01 168.23-7.67 168.23-8.91L168.23-8.91 168.23-37.55 174.57-37.55ZM204.63-26.39L204.63-20.04 193.54-20.04 193.54 0 187.12 0 187.12-20.04 178.87-20.04 178.87-26.39 187.12-26.39 187.12-35.01 193.54-35.01 193.54-26.39 204.63-26.39ZM231.75-26.39L231.75-20.04 217.47-20.04Q216.17-20.04 215.51-19.4 214.85-18.75 214.85-17.5L214.85-17.5 214.85 0 208.51 0 208.51-17.5Q208.51-19.14 208.92-20.43 209.34-21.73 210.03-22.72 210.73-23.71 211.63-24.4 212.53-25.1 213.52-25.54 214.51-25.98 215.52-26.18 216.54-26.39 217.42-26.39L217.42-26.39 231.75-26.39ZM261.12-17.65L261.12-8.74Q261.12-7.42 260.65-5.9 260.19-4.37 259.15-3.06 258.11-1.76 256.44-0.88 254.77 0 252.38 0L252.38 0 240.92 0Q239.61 0 238.08-0.46 236.55-0.93 235.25-1.97 233.94-3 233.06-4.68 232.18-6.35 232.18-8.74L232.18-8.74Q232.18-10.06 232.65-11.6 233.11-13.13 234.15-14.44 235.19-15.75 236.86-16.63 238.53-17.5 240.92-17.5L240.92-17.5 252.38-17.5 252.38-11.45 240.92-11.45Q239.63-11.45 238.92-10.66 238.21-9.86 238.21-8.69L238.21-8.69Q238.21-7.45 239.03-6.75 239.85-6.05 240.97-6.05L240.97-6.05 252.38-6.05Q253.67-6.05 254.38-6.84 255.09-7.62 255.09-8.79L255.09-8.79 255.09-17.65Q255.09-18.9 254.32-19.63 253.55-20.36 252.38-20.36L252.38-20.36 238.43-20.36 238.43-26.39 252.38-26.39Q253.69-26.39 255.22-25.93 256.75-25.46 258.05-24.43 259.36-23.39 260.24-21.72 261.12-20.04 261.12-17.65L261.12-17.65ZM292.09-6.35L292.09 0 274.88 0Q273.56 0 272-0.46 270.44-0.93 269.11-1.99 267.78-3.05 266.89-4.75 266-6.45 266-8.91L266-8.91 266-17.5Q266-18.41 266.2-19.41 266.41-20.41 266.85-21.4 267.29-22.39 267.99-23.29 268.68-24.19 269.67-24.88 270.66-25.56 271.95-25.98 273.25-26.39 274.88-26.39L274.88-26.39 292.09-26.39 292.09-20.04 274.88-20.04Q273.64-20.04 272.99-19.41 272.34-18.77 272.34-17.46L272.34-17.46 272.34-8.91Q272.34-7.67 273-7.01 273.66-6.35 274.93-6.35L274.93-6.35 292.09-6.35ZM313.41-14.4L328.35 0 319.19 0 306.4-12.35Q305.32-13.33 305.4-14.79L305.4-14.79Q305.45-15.48 305.75-16.08 306.06-16.67 306.59-17.09L306.59-17.09 318.19-26.44 328.35-26.44 313.41-14.4ZM303.79-37.55L303.79 0 297.44 0 297.44-37.55 303.79-37.55Z" opacity="1" transform="matrix(1,0,0,1,0,0)" fill="#3d4950" class="undefined-text-0" data-fill-palette-color="primary" id="text-0"></path></svg></g></svg></g></svg></g></svg></g><g transform="matrix(1,0,0,1,406.2738816011502,0)"><svg viewBox="0 0 68.54961530907094 62.953728345065144" height="62.953728345065144" width="68.54961530907094"><g><svg xmlns:x="http://ns.adobe.com/Extensibility/1.0/" xmlns:i="http://ns.adobe.com/AdobeIllustrator/10.0/" xmlns:graph="http://ns.adobe.com/Graphs/1.0/" xmlns="http://www.w3.org/2000/svg" xmlns:xlink="http://www.w3.org/1999/xlink" version="1.1" x="0" y="0" viewBox="7.5 9.5 49 45" enable-background="new 0 0 64 64" xml:space="preserve" height="62.953728345065144" width="68.54961530907094" class="icon-icon-0" data-fill-palette-color="accent" id="icon-0"><g fill="#ff4993" data-fill-palette-color="accent"><g fill="#ff4993" data-fill-palette-color="accent"><path d="M8 29.5c-0.276 0-0.5 0.224-0.5 0.5v4c0 0.276 0.224 0.5 0.5 0.5s0.5-0.224 0.5-0.5v-4C8.5 29.724 8.276 29.5 8 29.5z" fill="#ff4993" data-fill-palette-color="accent"></path><path d="M12 25.5c-0.276 0-0.5 0.224-0.5 0.5v12c0 0.276 0.224 0.5 0.5 0.5s0.5-0.224 0.5-0.5V26C12.5 25.724 12.276 25.5 12 25.5z" fill="#ff4993" data-fill-palette-color="accent"></path><path d="M16 27.5c-0.276 0-0.5 0.224-0.5 0.5v8c0 0.276 0.224 0.5 0.5 0.5s0.5-0.224 0.5-0.5v-8C16.5 27.724 16.276 27.5 16 27.5z" fill="#ff4993" data-fill-palette-color="accent"></path><path d="M20 19.5c-0.276 0-0.5 0.224-0.5 0.5v24c0 0.276 0.224 0.5 0.5 0.5s0.5-0.224 0.5-0.5V20C20.5 19.724 20.276 19.5 20 19.5z" fill="#ff4993" data-fill-palette-color="accent"></path><path d="M24 27.5c-0.276 0-0.5 0.224-0.5 0.5v8c0 0.276 0.224 0.5 0.5 0.5s0.5-0.224 0.5-0.5v-8C24.5 27.724 24.276 27.5 24 27.5z" fill="#ff4993" data-fill-palette-color="accent"></path><path d="M28 9.5c-0.276 0-0.5 0.224-0.5 0.5v44c0 0.276 0.224 0.5 0.5 0.5s0.5-0.224 0.5-0.5V10C28.5 9.724 28.276 9.5 28 9.5z" fill="#ff4993" data-fill-palette-color="accent"></path><path d="M32 17.5c-0.276 0-0.5 0.224-0.5 0.5v28c0 0.276 0.224 0.5 0.5 0.5s0.5-0.224 0.5-0.5V18C32.5 17.724 32.276 17.5 32 17.5z" fill="#ff4993" data-fill-palette-color="accent"></path><path d="M36 21.5c-0.276 0-0.5 0.224-0.5 0.5v20c0 0.276 0.224 0.5 0.5 0.5s0.5-0.224 0.5-0.5V22C36.5 21.724 36.276 21.5 36 21.5z" fill="#ff4993" data-fill-palette-color="accent"></path><path d="M40 27.5c-0.276 0-0.5 0.224-0.5 0.5v8c0 0.276 0.224 0.5 0.5 0.5s0.5-0.224 0.5-0.5v-8C40.5 27.724 40.276 27.5 40 27.5z" fill="#ff4993" data-fill-palette-color="accent"></path><path d="M44 29.5c-0.276 0-0.5 0.224-0.5 0.5v4c0 0.276 0.224 0.5 0.5 0.5s0.5-0.224 0.5-0.5v-4C44.5 29.724 44.276 29.5 44 29.5z" fill="#ff4993" data-fill-palette-color="accent"></path><path d="M48 21.5c-0.276 0-0.5 0.224-0.5 0.5v18c0 0.276 0.224 0.5 0.5 0.5s0.5-0.224 0.5-0.5V22C48.5 21.724 48.276 21.5 48 21.5z" fill="#ff4993" data-fill-palette-color="accent"></path><path d="M52 27.5c-0.276 0-0.5 0.224-0.5 0.5v8c0 0.276 0.224 0.5 0.5 0.5s0.5-0.224 0.5-0.5v-8C52.5 27.724 52.276 27.5 52 27.5z" fill="#ff4993" data-fill-palette-color="accent"></path><path d="M56 29.5c-0.276 0-0.5 0.224-0.5 0.5v4c0 0.276 0.224 0.5 0.5 0.5s0.5-0.224 0.5-0.5v-4C56.5 29.724 56.276 29.5 56 29.5z" fill="#ff4993" data-fill-palette-color="accent"></path></g></g></svg><g></g></g></svg></g></svg></g></svg><rect width="395.52" height="52.43939863352659" fill="none" stroke="none" visibility="hidden"></rect></g></svg></g></svg>